<?xml version="1.0" encoding="utf-8"?>
<!-- Generator: Adobe Illustrator 22.0.0, SVG Export Plug-In . SVG Version: 6.00 Build 0)  -->
<svg version="1.1" id="Layer_1" xmlns="http://www.w3.org/2000/svg" xmlns:xlink="http://www.w3.org/1999/xlink" x="0px" y="0px"
	 viewBox="0 0 612 792" style="enable-background:new 0 0 612 792;" xml:space="preserve">
<style type="text/css">
	.st0{fill:#004E9B;}
	.st1{fill:#E62984;}
</style>
<g>
	<path class="st0" d="M80.4,504.2l1-89.6l36.8-0.5c0,0,1.2,10.8-0.8,17.5l-16.5-1l-1,19l12.8,0.2l0.3,13.5l-13.3,0.8l-1.2,40H80.4z"
		/>
	<path class="st0" d="M203,416.8l-1.5,39.8l-11.8-45.3l-19.3,0.5l-1.2,30.8c-1.5-31-26.8-28-26.8-28c-14-0.6-20.5,8.2-23.2,17.8
		c-4.7,16.8-4.1,32.8-4.1,32.8c-2.3,46.8,24.3,41.3,24.3,41.3c27.3,4.3,29-38.3,29-38.3l-1,34h15.8v-54.3l13,57.1l19.5-0.3l2-87.1
		L203,416.8z M150,462.1c0,0-0.8,32.8-9.5,30.5c0,0-8.5,1-7.5-31.3c0,0-0.3-33,10.3-33.8C143.2,427.6,151.5,426.4,150,462.1z"/>
	<path class="st0" d="M371.7,417.8l-16.3-0.2l-0.2,53.5l-19-60.6l-20.3,0.8l-1.8,70.4l-21.6,1.5l0.1-21.6l13.3-0.5l-0.5-15l-13-0.5
		v-18l20-1.3l-0.8-15.8l-37.8,1.5v31.3c-4.5-12.3-8.8-15.8-16.5-21.8c-7.8-6-34.8-4.8-34.8-4.8l1.2,84.3c7.3,1,27.2-0.2,34.8-5.8
		c12.9-9.4,16-23.8,16-23.8l-0.8,28.8l39.8-0.5l0.2,3.5l18.5,0.1l-0.5-43.9c0,0,0.4,0,0.8,1c0.1,0.4,0.4,1.2,0.6,1.8
		c3.4,10.1,13.6,42.3,13.6,42.3l25.5,0.3L371.7,417.8z M242.8,485.9l-1.8-51.8c0,0,15-3.5,15.5,26.5
		C256.5,460.6,258.6,484.2,242.8,485.9z"/>
</g>
<g>
	<path class="st0" d="M584.6,396.1c-0.4-0.8-0.8-2.1-1.3-3.1c-0.4-0.7-1.2-1.8-1.6-2.6c-6.2-12.7-17.9-35.9-17.9-35.9
		c14-5.3,14.5-22,14.5-22c2-35-46.8-28-46.8-28v72.8l-21.5,1.5l-0.2-21.5l12.8-0.5v-15l-13.3,0.3l0.5-19l19.5-1.3l-0.8-15.5
		l-37.5,1.8l-0.2,52.5c-4,1.8-16.8,1-16.8,1c0.7,23.5-6.5,20.8-6.5,20.8c-9.5,0.5-9-30-9-30c0.8-39.8,9-35.8,9-35.8
		c6.5-0.5,5.3,16.8,5.3,16.8l16.8,0.5c1-7-0.5-15.8-0.5-15.8c-2.5-16.3-21.3-14.8-21.3-14.8c-8.3,0.2-16,3.3-21.5,12.3
		c-5.5,9-6.8,25.8-6.8,25.8v-33.5l-15.3,0.2l1.5,56.1l-15-58.1l-19,0.8l-0.5,80.3l-9.8-79.1l-29,0.3L344,360l-17,1
		c-0.8,22.3-7.3,17.8-7.3,17.8c-9.3,1.3-7.3-29-7.3-29c2.5-30,10.5-30.8,10.5-30.8c8.5,2,4.1,17,4.1,17h17.3
		c4.5-11.6,0.8-18.4,0.8-18.4c-4.5-13.9-21.4-13.1-21.4-13.1c-32.7,3.4-30.8,51-30.8,51c-1,39.8,25.8,38.3,25.8,38.3
		c17.8,2.8,21.5-11.5,21.5-11.5l-2,16l19-1l3-20.3l10.5,0.2l2.8,16.8h32.8l0.3-39.5l12.5,43.5h20l0.2-31
		c3.3,30.8,27.5,26.8,27.5,26.8c19,2,23.3-18.3,23.3-18.3l0.5,19.8l39.8-0.8l0.8,4l17.5-1l1-31l15,31.3l20.3,0.5
		C585,398.3,585.6,398.1,584.6,396.1z M360.8,361.2l5-32.5l3.8,32.8L360.8,361.2z M560,333.7c0,0-0.5,12.3-10.8,10.8l1-23.8
		C550.2,320.7,562.5,321.7,560,333.7z"/>
	<path class="st0" d="M291.9,395.6l-1.1-86.7h-16.1v52.9l-18-57.8l-21,0.8l-0.6,25.3c-4.6-27.5-49.3-21.9-49.3-21.9l-2.6,79.9
		l-9.4-84.5l-31.5,1.1l-7.9,59.3c-2.6-8.3-11.3-12.1-11.3-12.1c12.8-9.4,10.1-21.6,10.1-21.6c0.8-31.2-49.2-22.5-49.2-22.5l-0.7,89
		c44.7,6,48.4-14.4,48.4-14.4l-1.5,13.6l18.8,1.1l1.9-16.1l12.5-0.2l2.5,14.9l35.8,0.9l1.4-32.8l13.9,34.5h18.4l-1.1-3.8h18
		l-0.4-44.3l14.6,45.4H291.9z M103.8,323.2c0,0,11.3,0.8,10.9,8.6c0,0,0.8,10.5-10.9,10.1V323.2z M103.8,381.4l0.4-24.8
		c0,0,10.9,1.1,11.3,12.8C115.4,369.4,116.9,381.8,103.8,381.4z M152.2,364.2l5.6-41.8l3.9,42L152.2,364.2z M203.6,348.7l1.1-24.8
		c0,0,12,0,12.8,11.6C217.5,335.6,217.9,350.6,203.6,348.7z M232.7,390.3l-11.5-32.8c0,0,5.3,0.2,12.5-9L232.7,390.3z"/>
</g>
<polygon class="st1" points="282.5,199.1 295.4,198.2 294.5,176.7 279.9,178 "/>
<polygon class="st1" points="305.6,198.6 318.5,198.9 319.6,177.4 304.9,177.3 "/>
<path class="st1" d="M403.6,201.6c0,0,4.3,37.1,1.6,53.7c-2.7,16.7-2.1,16.4-7.8,17.3c-5.7,0.9-7.3-17.8-7.3-17.8l-17-1
	c0,0-3.4,38,29.3,36.9c32.8-1.1,18.3-84.9,18.3-84.9l-0.7-3.8L403.6,201.6z"/>
<path class="st1" d="M215.2,228l16.9-2c0,0-0.1-24.1-16.7-28.9c-16.7-4.7-30.1,9.6-33.4,20.2c-3.3,10.6,6,24.2,14.3,28.4
	c8.3,4.1,19.2,11.1,18,19.9c-1.1,8.8-6.3,10.2-11,7c-4.7-3.2-6.3-13.6-6.3-13.6l-17.3,1.6c0,0,3.3,33.2,27.6,30.7
	c24.3-2.5,27.6-27.6,23.6-38.5c-4-10.9-16.5-16.5-23.5-20.8c-7-4.3-13.7-18-2.7-19.9C215.7,210.3,215.2,228,215.2,228z"/>
<polyline class="st1" points="281.3,201.8 280.6,218.8 264.1,217.8 261.6,291.3 243.7,290.8 244.3,217.1 226.2,217.1 226.2,201.3 
	281.3,201.3 "/>
<path class="st1" d="M325.5,253.7c0,0-0.6,42.6-28,39c0,0-26.4,6.2-25.3-40.6c0,0-1.1-15.9,3.2-32.8c2.5-9.7,8.7-18.7,22.7-18.4
	c0,0,25.2-3.7,27.5,27.3 M300,213.8c-10.5,0.8-10.3,33.8-10.3,33.8c-1,32.3,7.5,31.3,7.5,31.3c8.8,2.3,9.5-30.5,9.5-30.5
	C308.3,212.6,300,213.8,300,213.8z"/>
<path class="st1" d="M324.7,201c0,0,42.2,13.8,47.6,41.4c5.4,27.6,1.6,56.9-48.8,48.6L324.7,201z M339.3,226.7l-1.1,51.1
	c0,0,16.5-1.1,20-17.9C361.7,243.2,339.3,226.7,339.3,226.7z"/>
<path class="st1" d="M422.7,256.5L423,204l37.5-1.8l0.8,15.5l-19.5,1.3l-0.5,19l13.3-0.3v15l-12.8,0.5l0.3,21.5l21.5-1.5v-72.8
	c0,0,48.8-7,46.8,28c0,0-0.5,16.8-14.5,22c0,0,11.7,23.2,17.9,35.9c0.4,0.8,1.3,1.9,1.7,2.6c0.5,1,1,2.3,1.3,3.1
	c0.9,2,0.4,2.1,0.4,2.1l-20.3-0.5l-15-31.3l-1,31l-17.5,1l-0.8-4l-39.8,0.8l-0.5-19.8 M482.3,216.7l-1,23.8
	c10.3,1.5,10.8-10.8,10.8-10.8C494.6,217.7,482.3,216.7,482.3,216.7z"/>
<polygon class="st1" points="131.1,201.1 150.4,198.6 150.4,288.8 130.8,289.7 "/>
<polygon class="st1" points="110,205.6 100,256.1 93.5,202 72.2,202.7 87.2,288.8 109.1,289.3 131.1,203 "/>
</svg>
