<?xml version="1.0" encoding="utf-8"?>
<!-- Generator: Adobe Illustrator 22.0.0, SVG Export Plug-In . SVG Version: 6.00 Build 0)  -->
<svg version="1.1" id="Logo" xmlns="http://www.w3.org/2000/svg" xmlns:xlink="http://www.w3.org/1999/xlink" x="0px" y="0px"
	 viewBox="0 0 674.3 182.7" style="enable-background:new 0 0 674.3 182.7;" xml:space="preserve">
<style type="text/css">
	.st0{clip-path:url(#SVGID_2_);fill:#706F6F;}
	.st1{clip-path:url(#SVGID_2_);fill:#F7B700;}
</style>
<g>
	<g>
		<defs>
			<rect id="SVGID_1_" x="2.9" y="3.3" width="663.8" height="174.7"/>
		</defs>
		<clipPath id="SVGID_2_">
			<use xlink:href="#SVGID_1_"  style="overflow:visible;"/>
		</clipPath>
		<path class="st0" d="M648.9,145.2c2.6-1.6,4.7-3.8,6.2-6.5c1.5-2.8,2.2-5.8,2.2-9.3c0-3.4-0.7-6.5-2.2-9.3c-1.5-2.8-3.5-5-6.2-6.6
			c-2.6-1.6-5.6-2.4-8.8-2.4c-3.2,0-6.2,0.8-8.8,2.4c-2.6,1.6-4.7,3.8-6.2,6.6c-1.5,2.8-2.3,5.9-2.3,9.3c0,3.4,0.8,6.5,2.3,9.3
			c1.5,2.8,3.6,4.9,6.2,6.5c2.6,1.6,5.6,2.4,8.8,2.4C643.4,147.6,646.3,146.8,648.9,145.2L648.9,145.2z M653.7,106
			c4,2.4,7.3,5.6,9.6,9.7c2.4,4.1,3.5,8.7,3.5,13.7v21.7c0,1.4-0.5,2.6-1.4,3.5c-0.9,0.9-2.1,1.4-3.5,1.4c-1.4,0-2.6-0.5-3.5-1.4
			c-0.9-0.9-1.4-2.1-1.4-3.5v-3.6c-2.3,2.8-5,5-8.3,6.5c-3.2,1.6-6.7,2.3-10.5,2.3c-4.7,0-8.9-1.2-12.7-3.5
			c-3.8-2.3-6.8-5.6-8.9-9.7c-2.2-4.1-3.3-8.7-3.3-13.7c0-5.1,1.2-9.6,3.5-13.7c2.3-4.1,5.6-7.3,9.7-9.7c4.1-2.4,8.7-3.5,13.6-3.5
			C645.1,102.4,649.6,103.6,653.7,106L653.7,106z M589.2,81.4c0.9-0.9,2.1-1.4,3.5-1.4c1.4,0,2.6,0.5,3.5,1.4
			c0.9,0.9,1.4,2.1,1.4,3.5v53c0,2.4,0.5,4.4,1.4,5.9c0.9,1.6,2.1,2.3,3.5,2.3h2.4c1.3,0,2.3,0.5,3.2,1.4c0.8,0.9,1.2,2.1,1.2,3.5
			c0,1.4-0.6,2.6-1.8,3.5c-1.2,0.9-2.8,1.4-4.8,1.4h-0.2c-2.8,0-5.3-0.8-7.5-2.3c-2.2-1.5-4-3.7-5.2-6.4c-1.2-2.8-1.8-5.8-1.8-9.3
			v-53C587.9,83.5,588.3,82.3,589.2,81.4L589.2,81.4z M560.1,81.4c0.9-0.9,2.1-1.4,3.5-1.4c1.4,0,2.6,0.5,3.5,1.4
			c0.9,0.9,1.4,2.1,1.4,3.5v53c0,2.4,0.5,4.4,1.4,5.9c0.9,1.6,2.1,2.3,3.5,2.3h2.4c1.3,0,2.3,0.5,3.2,1.4c0.8,0.9,1.2,2.1,1.2,3.5
			c0,1.4-0.6,2.6-1.8,3.5c-1.2,0.9-2.8,1.4-4.8,1.4h-0.2c-2.8,0-5.3-0.8-7.5-2.3c-2.2-1.5-4-3.7-5.2-6.4c-1.2-2.8-1.8-5.8-1.8-9.3
			v-53C558.7,83.5,559.2,82.3,560.1,81.4L560.1,81.4z M541.8,104.1c0.9,0.9,1.4,2.1,1.4,3.6V151c0,1.4-0.5,2.6-1.4,3.5
			c-0.9,0.9-2.1,1.4-3.6,1.4c-1.4,0-2.6-0.5-3.5-1.4c-0.9-0.9-1.4-2.1-1.4-3.5v-1.1c-2.1,2.1-4.5,3.7-7.4,4.8
			c-2.9,1.1-5.9,1.7-9.1,1.7c-4.5,0-8.5-1-12-2.9c-3.6-1.9-6.3-4.8-8.4-8.5c-2-3.7-3-8.2-3-13.5v-23.9c0-1.4,0.5-2.6,1.4-3.5
			c0.9-0.9,2.1-1.4,3.5-1.4c1.4,0,2.6,0.5,3.5,1.4c0.9,0.9,1.4,2.1,1.4,3.5v23.9c0,5.2,1.4,9.2,4.2,11.9c2.8,2.7,6.6,4,11.2,4
			c2.7,0,5.2-0.5,7.4-1.7c2.2-1.1,4-2.6,5.2-4.5c1.3-1.9,1.9-4,1.9-6.3v-27.4c0-1.5,0.5-2.7,1.4-3.6c0.9-0.9,2.1-1.4,3.5-1.4
			C539.7,102.7,540.9,103.2,541.8,104.1L541.8,104.1z M472.9,92.6c-2.2,2.4-3.3,5.6-3.3,9.5v2.6h9.9c1.4,0,2.5,0.4,3.3,1.2
			c0.8,0.8,1.3,1.8,1.3,3.1c0,1.2-0.4,2.1-1.3,2.9c-0.8,0.8-1.9,1.2-3.3,1.2h-9.9V151c0,1.5-0.5,2.7-1.4,3.6
			c-0.9,0.9-2.2,1.4-3.8,1.4c-1.3,0-2.4-0.5-3.4-1.4c-0.9-0.9-1.4-2.1-1.4-3.6v-37.9h-4.2c-1.4,0-2.5-0.4-3.3-1.2
			c-0.8-0.8-1.3-1.7-1.3-2.9c0-1.3,0.4-2.3,1.3-3.1c0.8-0.8,1.9-1.2,3.3-1.2h4.2v-1.7c0-4.6,0.9-8.6,2.8-12.1
			c1.8-3.5,4.4-6.2,7.8-8.1c3.3-1.9,7.1-2.9,11.4-2.9c1.4,0,2.6,0.4,3.5,1.3c0.9,0.8,1.4,1.9,1.4,3.2c0,1.3-0.5,2.4-1.4,3.2
			c-0.9,0.8-2.1,1.3-3.5,1.3C478.1,89,475.1,90.2,472.9,92.6L472.9,92.6z M432.1,104.5c3.3,1.4,6,3.2,7.9,5.6c0.8,1,1.3,2.1,1.3,3.1
			c0,1.1-0.6,2.1-1.7,3c-0.7,0.5-1.6,0.8-2.7,0.8c-1.7,0-3.2-0.6-4.6-1.8c-1.6-1.5-3.3-2.5-5.1-3.2c-1.8-0.6-4-0.9-6.6-0.9
			c-3,0-5.4,0.5-7.3,1.5c-1.9,1-2.9,2.4-2.9,4.2c0,1.3,0.3,2.4,1,3.3c0.6,0.9,1.9,1.7,3.7,2.4c1.8,0.7,4.4,1.5,7.9,2.2
			c7.1,1.4,12.1,3.4,15,5.9c2.9,2.5,4.4,5.8,4.4,9.8c0,3-0.8,5.7-2.4,8.1c-1.6,2.4-4,4.3-7.1,5.7c-3.1,1.4-6.9,2.1-11.3,2.1
			c-4.4,0-8.5-0.7-12.4-2c-3.9-1.4-6.9-3.1-9.1-5.3c-0.8-0.8-1.3-1.8-1.3-3c0-1.6,0.6-2.8,1.9-3.8c1.2-0.9,2.4-1.4,3.4-1.4
			c1.3,0,2.5,0.6,3.7,1.7c1.2,1.4,3.1,2.5,5.5,3.5c2.5,1,5.1,1.5,7.9,1.5c3.7,0,6.6-0.6,8.6-1.8c2-1.2,3.1-2.9,3.1-5c0-2-1-3.7-3-5
			c-2-1.3-5.4-2.4-10.2-3.4c-12.4-2.4-18.7-7.5-18.7-15.3c0-3.2,0.9-5.9,2.8-8.1c1.9-2.2,4.3-3.9,7.4-5c3-1.1,6.3-1.7,9.7-1.7
			C425,102.4,428.8,103.1,432.1,104.5L432.1,104.5z M369.5,145.3c2.6-1.6,4.7-3.7,6.1-6.5c1.5-2.8,2.2-5.9,2.2-9.4
			c0-3.5-0.7-6.6-2.2-9.4c-1.5-2.8-3.5-5-6.1-6.5c-2.6-1.6-5.6-2.3-8.9-2.3c-3.3,0-6.3,0.8-8.9,2.3c-2.6,1.6-4.7,3.7-6.2,6.5
			c-1.5,2.8-2.2,5.9-2.2,9.4c0,3.5,0.7,6.6,2.2,9.4c1.5,2.8,3.5,4.9,6.2,6.5c2.6,1.6,5.6,2.3,8.9,2.3
			C363.9,147.6,366.9,146.8,369.5,145.3L369.5,145.3z M374.4,105.9c4,2.3,7.2,5.5,9.5,9.6c2.3,4.1,3.4,8.7,3.4,14v21
			c0,5.1-1.1,9.8-3.4,14c-2.3,4.2-5.5,7.5-9.6,10c-4.1,2.4-8.8,3.6-13.9,3.6c-4.7,0-9-0.9-13-2.8c-4-1.8-7.4-4.5-10.1-7.9
			c-0.7-0.9-1.1-1.8-1.1-2.7c0-1.4,0.7-2.5,2-3.5c0.9-0.6,1.8-0.9,2.7-0.9c1.6,0,2.9,0.7,4,2c1.7,2.3,3.9,4,6.6,5.2
			c2.7,1.2,5.7,1.8,9,1.8c3.2,0,6.1-0.8,8.6-2.3c2.6-1.5,4.7-3.8,6.2-6.7c1.6-2.9,2.3-6.5,2.3-10.5V145c-2,3.6-4.7,6.3-8,8.4
			c-3.3,2-7,3-11.2,3c-4.8,0-9.1-1.2-12.9-3.5c-3.8-2.3-6.7-5.5-8.8-9.6c-2.1-4.1-3.2-8.7-3.2-13.9c0-5.2,1.1-9.9,3.4-14
			c2.3-4.1,5.4-7.3,9.5-9.6c4.1-2.3,8.7-3.4,13.9-3.4C365.8,102.4,370.3,103.6,374.4,105.9L374.4,105.9z M308.8,105.2
			c3.6,1.9,6.3,4.8,8.4,8.5c2,3.7,3,8.2,3,13.5v23.9c0,1.4-0.5,2.6-1.4,3.5c-0.9,0.9-2.1,1.4-3.5,1.4c-1.4,0-2.6-0.5-3.5-1.4
			c-0.9-0.9-1.4-2.1-1.4-3.5v-23.9c0-5.2-1.4-9.2-4.2-11.9c-2.8-2.7-6.6-4-11.2-4c-2.7,0-5.2,0.6-7.4,1.7c-2.2,1.1-4,2.6-5.2,4.5
			c-1.3,1.9-1.9,4-1.9,6.3v27.4c0,1.4-0.5,2.6-1.4,3.5c-0.9,0.9-2.1,1.4-3.6,1.4c-1.4,0-2.6-0.5-3.5-1.4c-0.9-0.9-1.4-2.1-1.4-3.5
			v-43.3c0-1.5,0.5-2.7,1.4-3.6c0.9-0.9,2.1-1.4,3.5-1.4c1.5,0,2.7,0.5,3.6,1.4c0.9,0.9,1.4,2.1,1.4,3.6v1.1
			c2.1-2.1,4.5-3.7,7.4-4.8c2.9-1.1,5.9-1.7,9.1-1.7C301.2,102.3,305.2,103.3,308.8,105.2L308.8,105.2z M243.3,104.2
			c0.9-0.9,2.1-1.4,3.5-1.4c1.5,0,2.7,0.5,3.6,1.4c0.9,0.9,1.4,2.1,1.4,3.6V151c0,1.4-0.5,2.6-1.4,3.5c-0.9,0.9-2.1,1.4-3.6,1.4
			c-1.4,0-2.6-0.5-3.5-1.4c-0.9-0.9-1.4-2.1-1.4-3.5v-43.2C241.9,106.3,242.4,105.1,243.3,104.2L243.3,104.2z M251.4,83.2
			c1.3,1.3,1.9,2.8,1.9,4.5c0,1.7-0.6,3.3-1.9,4.5c-1.3,1.3-2.8,1.9-4.5,1.9c-1.7,0-3.3-0.6-4.5-1.9c-1.3-1.3-1.9-2.8-1.9-4.5
			c0-1.7,0.6-3.3,1.9-4.5c1.3-1.3,2.8-1.9,4.5-1.9C248.6,81.3,250.1,82,251.4,83.2L251.4,83.2z M213.2,105.2
			c3.6,1.9,6.3,4.8,8.4,8.5c2,3.7,3,8.2,3,13.5v23.9c0,1.4-0.5,2.6-1.4,3.5c-0.9,0.9-2.1,1.4-3.5,1.4c-1.4,0-2.6-0.5-3.5-1.4
			c-0.9-0.9-1.4-2.1-1.4-3.5v-23.9c0-5.2-1.4-9.2-4.2-11.9c-2.8-2.7-6.6-4-11.2-4c-2.7,0-5.2,0.6-7.4,1.7c-2.2,1.1-4,2.6-5.2,4.5
			c-1.3,1.9-1.9,4-1.9,6.3v27.4c0,1.4-0.5,2.6-1.4,3.5c-0.9,0.9-2.1,1.4-3.6,1.4c-1.4,0-2.6-0.5-3.5-1.4c-0.9-0.9-1.4-2.1-1.4-3.5
			v-43.3c0-1.5,0.5-2.7,1.4-3.6c0.9-0.9,2.1-1.4,3.5-1.4c1.5,0,2.7,0.5,3.6,1.4c0.9,0.9,1.4,2.1,1.4,3.6v1.1
			c2.1-2.1,4.5-3.7,7.4-4.8c2.8-1.1,5.9-1.7,9.1-1.7C205.6,102.3,209.6,103.3,213.2,105.2L213.2,105.2z M126.4,114.7
			c-2.9,2.6-4.8,6.1-5.6,10.4h32.4c-0.6-4.3-2.2-7.8-4.9-10.4c-2.7-2.6-6.1-3.9-10.4-3.9C133.1,110.8,129.3,112.1,126.4,114.7
			L126.4,114.7z M160.8,131.6c-0.8,0.8-1.9,1.2-3.2,1.2h-36.9c0.7,4.5,2.8,8.2,6.2,11c3.4,2.8,7.6,4.2,12.5,4.2c1.9,0,4-0.4,6.1-1.1
			c2.1-0.7,3.8-1.6,5.2-2.6c0.9-0.7,2-1.1,3.2-1.1c1.2,0,2.2,0.3,2.9,1c1.2,1,1.7,2.1,1.7,3.3c0,1.2-0.5,2.1-1.6,2.9
			c-2.2,1.7-4.9,3.2-8.2,4.3c-3.3,1.1-6.4,1.7-9.4,1.7c-5.3,0-10.1-1.2-14.3-3.5c-4.2-2.3-7.5-5.5-9.9-9.6
			c-2.4-4.1-3.5-8.7-3.5-13.9c0-5.2,1.1-9.8,3.4-13.9c2.2-4.1,5.3-7.3,9.3-9.6c4-2.3,8.5-3.4,13.6-3.4c5,0,9.3,1.1,12.9,3.3
			c3.6,2.2,6.4,5.3,8.4,9.2c1.9,4,2.9,8.5,2.9,13.6C162.1,129.8,161.6,130.8,160.8,131.6L160.8,131.6z"/>
		<path class="st1" d="M88,161.5c1.4-14.5-21.3-41.8-31.1-51.6L29.5,81.3c-7.9-7.9-11.8-18.7-10.8-29.8c1-10.7,6.6-20.3,15.3-26.3
			c8-5.5,17.8-7.5,27.7-5.6c7,1.4,13.4,5,18.5,10.1l0.1,0.1l10.9,10.9c0.1,0.1,0.2,0.1,0.3,0l10.9-10.9l0,0
			c5.6-5.6,12.8-9.4,20.6-10.5c11.6-1.6,22.8,2.2,30.9,10.2c6.8,6.8,10.6,15.9,10.6,25.6c0,9.2-3.4,17.9-9.7,24.7
			c-0.1,0.1,0,0.4,0.2,0.4l0,0c8.5,0,22.7-14.4,22.8-28.2c0-0.1,0-0.2,0-0.3c0-13.3-2.7-23.1-12.8-33.2
			C154.9,8.3,141.6,3.3,128.4,3.3c-13.3,0-26.5,5.1-36.7,15.2l-0.3,0.3l-0.3-0.3C81,8.3,67.7,3.3,54.4,3.3c-10.2,0-20.5,3-29.3,9
			c-26.9,18.4-29.8,57-6.8,80.1l69.3,69.2C87.8,161.8,88,161.7,88,161.5L88,161.5L88,161.5z"/>
	</g>
</g>
</svg>
