<?xml version="1.0" encoding="utf-8"?>
<!-- Generator: Adobe Illustrator 22.0.0, SVG Export Plug-In . SVG Version: 6.00 Build 0)  -->
<svg version="1.1" id="Logo" xmlns="http://www.w3.org/2000/svg" xmlns:xlink="http://www.w3.org/1999/xlink" x="0px" y="0px"
	 viewBox="0 0 180.3 165.3" style="enable-background:new 0 0 180.3 165.3;" xml:space="preserve">
<style type="text/css">
	.st0{fill:#F7B519;}
</style>
<path id="M" class="st0" d="M87.1,160.2c1.4-14.5-21.3-41.8-31.1-51.6L28.6,80.1c-7.9-7.9-11.8-18.7-10.8-29.8
	c1-10.7,6.6-20.3,15.3-26.3c8-5.5,17.8-7.5,27.7-5.6c7,1.4,13.4,5,18.5,10.1l0.1,0.1l10.9,10.9c0.1,0.1,0.2,0.1,0.3,0l10.9-10.9l0,0
	c5.6-5.6,12.8-9.4,20.6-10.5c11.6-1.6,22.8,2.2,30.9,10.2c6.8,6.8,10.6,15.9,10.6,25.6c0,9.2-3.4,17.9-9.7,24.7
	c-0.1,0.1,0,0.4,0.2,0.4l0,0c8.5,0,22.7-14.4,22.8-28.2c0-0.1,0-0.2,0-0.3c0-13.3-2.7-23.1-12.8-33.2C154,7.1,140.7,2,127.5,2
	c-13.3,0-26.5,5.1-36.7,15.2l-0.3,0.3l-0.3-0.3C80.1,7.1,66.8,2,53.5,2c-10.2,0-20.5,3-29.3,9c-26.9,18.4-29.8,57-6.8,80.1
	l69.3,69.2C86.9,160.5,87.1,160.4,87.1,160.2L87.1,160.2z"/>
</svg>
