<?xml version="1.0" encoding="utf-8"?>
<!-- Generator: Adobe Illustrator 22.0.0, SVG Export Plug-In . SVG Version: 6.00 Build 0)  -->
<svg version="1.1" id="Logo" xmlns="http://www.w3.org/2000/svg" xmlns:xlink="http://www.w3.org/1999/xlink" x="0px" y="0px"
	 viewBox="0 0 885 270" style="enable-background:new 0 0 885 270;" xml:space="preserve">
<style type="text/css">
	.st0{fill:#D1D3D4;}
	.st1{fill:#F7B519;}
</style>
<g id="Meningsfulla.se">
	<path id="eningsfulla.se" class="st0" d="M200.8,184.4c-0.8,0.8-1.9,1.2-3.2,1.2h-36.9c0.7,4.5,2.8,8.2,6.2,11
		c3.4,2.8,7.6,4.2,12.5,4.2c1.9,0,4-0.4,6.1-1.1c2.1-0.7,3.8-1.6,5.2-2.6c0.9-0.7,2-1.1,3.2-1.1c1.2,0,2.2,0.3,2.9,1
		c1.2,1,1.7,2.1,1.7,3.3c0,1.2-0.5,2.1-1.6,2.9c-2.2,1.7-4.9,3.2-8.2,4.3c-3.3,1.1-6.4,1.7-9.4,1.7c-5.3,0-10.1-1.1-14.3-3.4
		c-4.2-2.3-7.5-5.5-9.9-9.6c-2.4-4.1-3.5-8.7-3.5-13.9c0-5.2,1.1-9.8,3.4-13.9c2.2-4.1,5.3-7.3,9.3-9.6c4-2.3,8.5-3.4,13.6-3.4
		c5,0,9.3,1.1,12.9,3.3c3.6,2.2,6.4,5.3,8.4,9.2c1.9,4,2.9,8.5,2.9,13.6C202,182.6,201.6,183.6,200.8,184.4z M166.3,167.4
		c-2.9,2.6-4.8,6.1-5.6,10.4h32.4c-0.6-4.3-2.2-7.8-4.9-10.4c-2.7-2.6-6.1-3.9-10.4-3.9C173.1,163.5,169.3,164.8,166.3,167.4z
		 M253.1,158c3.6,1.9,6.3,4.8,8.4,8.5c2,3.7,3,8.2,3,13.5v23.9c0,1.4-0.5,2.6-1.4,3.5c-0.9,0.9-2.1,1.4-3.5,1.4
		c-1.4,0-2.6-0.5-3.5-1.4c-0.9-0.9-1.4-2.1-1.4-3.5V180c0-5.2-1.4-9.2-4.2-11.9c-2.8-2.7-6.6-4-11.2-4c-2.7,0-5.2,0.6-7.4,1.7
		c-2.2,1.1-4,2.6-5.2,4.5c-1.3,1.9-1.9,4-1.9,6.3v27.4c0,1.4-0.5,2.6-1.4,3.5c-0.9,0.9-2.1,1.4-3.6,1.4c-1.4,0-2.6-0.5-3.5-1.4
		c-0.9-0.9-1.4-2.1-1.4-3.5v-43.3c0-1.5,0.5-2.7,1.4-3.6c0.9-0.9,2.1-1.4,3.5-1.4c1.5,0,2.7,0.5,3.6,1.4c0.9,0.9,1.4,2.1,1.4,3.6
		v1.1c2.1-2.1,4.5-3.7,7.4-4.8c2.8-1.1,5.9-1.7,9.1-1.7C245.6,155.1,249.6,156.1,253.1,158z M291.4,136c1.3,1.3,1.9,2.8,1.9,4.5
		c0,1.7-0.6,3.3-1.9,4.5c-1.3,1.3-2.8,1.9-4.5,1.9c-1.7,0-3.3-0.6-4.5-1.9c-1.3-1.3-1.9-2.8-1.9-4.5c0-1.7,0.6-3.3,1.9-4.5
		c1.3-1.3,2.8-1.9,4.5-1.9C288.6,134.1,290.1,134.7,291.4,136z M283.3,156.9c0.9-0.9,2.1-1.4,3.5-1.4c1.5,0,2.7,0.5,3.6,1.4
		c0.9,0.9,1.4,2.1,1.4,3.6v43.2c0,1.4-0.5,2.6-1.4,3.5c-0.9,0.9-2.1,1.4-3.6,1.4c-1.4,0-2.6-0.5-3.5-1.4c-0.9-0.9-1.4-2.1-1.4-3.5
		v-43.2C281.9,159,282.4,157.9,283.3,156.9z M348.7,158c3.6,1.9,6.3,4.8,8.4,8.5c2,3.7,3,8.2,3,13.5v23.9c0,1.4-0.5,2.6-1.4,3.5
		c-0.9,0.9-2.1,1.4-3.5,1.4c-1.4,0-2.6-0.5-3.5-1.4c-0.9-0.9-1.4-2.1-1.4-3.5V180c0-5.2-1.4-9.2-4.2-11.9c-2.8-2.7-6.6-4-11.2-4
		c-2.7,0-5.2,0.6-7.4,1.7c-2.2,1.1-4,2.6-5.2,4.5c-1.3,1.9-1.9,4-1.9,6.3v27.4c0,1.4-0.5,2.6-1.4,3.5c-0.9,0.9-2.1,1.4-3.6,1.4
		c-1.4,0-2.6-0.5-3.5-1.4c-0.9-0.9-1.4-2.1-1.4-3.5v-43.3c0-1.5,0.5-2.7,1.4-3.6c0.9-0.9,2.1-1.4,3.5-1.4c1.5,0,2.7,0.5,3.6,1.4
		c0.9,0.9,1.4,2.1,1.4,3.6v1.1c2.1-2.1,4.5-3.7,7.4-4.8c2.8-1.1,5.9-1.7,9.1-1.7C341.2,155.1,345.2,156.1,348.7,158z M414.4,158.6
		c4,2.3,7.2,5.5,9.5,9.6c2.3,4.1,3.4,8.7,3.4,14v21c0,5.1-1.1,9.8-3.4,14c-2.3,4.2-5.5,7.5-9.6,10c-4.1,2.4-8.8,3.6-13.9,3.6
		c-4.7,0-9-0.9-13-2.8c-4-1.8-7.4-4.5-10.1-7.9c-0.7-0.9-1.1-1.8-1.1-2.7c0-1.4,0.7-2.5,2-3.5c0.9-0.6,1.8-0.9,2.7-0.9
		c1.6,0,2.9,0.7,4,2c1.7,2.3,4,4,6.6,5.2c2.7,1.2,5.7,1.8,9,1.8c3.2,0,6.1-0.8,8.6-2.3c2.6-1.5,4.7-3.8,6.2-6.7
		c1.6-2.9,2.3-6.5,2.3-10.5v-4.8c-2,3.6-4.7,6.3-8,8.4c-3.3,2-7,3-11.2,3c-4.8,0-9.1-1.1-12.9-3.4c-3.8-2.3-6.7-5.5-8.8-9.6
		c-2.1-4.1-3.2-8.7-3.2-13.9c0-5.2,1.1-9.9,3.4-14c2.3-4.1,5.4-7.3,9.5-9.6c4.1-2.3,8.7-3.4,13.9-3.4
		C405.7,155.2,410.3,156.3,414.4,158.6z M409.5,198c2.6-1.6,4.7-3.7,6.1-6.5c1.5-2.8,2.2-5.9,2.2-9.4c0-3.5-0.7-6.6-2.2-9.4
		c-1.5-2.8-3.5-5-6.1-6.5c-2.6-1.6-5.6-2.3-8.9-2.3c-3.3,0-6.3,0.8-8.9,2.3c-2.6,1.6-4.7,3.7-6.2,6.5c-1.5,2.8-2.2,5.9-2.2,9.4
		c0,3.5,0.7,6.6,2.2,9.4c1.5,2.8,3.5,4.9,6.2,6.5c2.6,1.6,5.6,2.3,8.9,2.3C403.9,200.4,406.9,199.6,409.5,198z M472.1,157.2
		c3.3,1.4,6,3.2,7.9,5.6c0.8,1,1.3,2.1,1.3,3.1c0,1.1-0.6,2.1-1.7,3c-0.7,0.5-1.6,0.8-2.7,0.8c-1.7,0-3.2-0.6-4.6-1.8
		c-1.6-1.5-3.3-2.5-5.1-3.2c-1.8-0.6-4-0.9-6.6-0.9c-3,0-5.4,0.5-7.3,1.5c-1.9,1-2.9,2.4-2.9,4.2c0,1.3,0.3,2.4,1,3.3
		c0.6,0.9,1.9,1.7,3.7,2.4c1.8,0.7,4.4,1.5,7.9,2.2c7.1,1.4,12.1,3.4,15,5.9c2.9,2.5,4.4,5.8,4.4,9.8c0,3-0.8,5.7-2.4,8.1
		c-1.6,2.4-4,4.3-7.1,5.7c-3.1,1.4-6.9,2.1-11.3,2.1c-4.4,0-8.5-0.7-12.4-2c-3.9-1.4-6.9-3.1-9.1-5.3c-0.8-0.8-1.3-1.8-1.3-3
		c0-1.6,0.6-2.8,1.9-3.8c1.2-0.9,2.4-1.4,3.4-1.4c1.3,0,2.5,0.6,3.7,1.7c1.2,1.4,3.1,2.5,5.5,3.5c2.5,1,5.1,1.5,7.9,1.5
		c3.7,0,6.6-0.6,8.6-1.8c2-1.2,3.1-2.9,3.1-5c0-2-1-3.7-3-5c-2-1.3-5.4-2.4-10.2-3.4c-12.4-2.4-18.7-7.5-18.7-15.4
		c0-3.2,0.9-5.9,2.8-8.1c1.9-2.2,4.3-3.9,7.4-5c3-1.1,6.3-1.7,9.7-1.7C465,155.2,468.7,155.9,472.1,157.2z M512.9,145.4
		c-2.2,2.4-3.3,5.6-3.3,9.5v2.6h9.9c1.4,0,2.5,0.4,3.3,1.2c0.8,0.8,1.3,1.8,1.3,3.1c0,1.2-0.4,2.1-1.3,2.9c-0.8,0.8-1.9,1.2-3.3,1.2
		h-9.9v37.9c0,1.5-0.5,2.7-1.4,3.6c-0.9,0.9-2.2,1.4-3.8,1.4c-1.3,0-2.4-0.5-3.4-1.4c-0.9-0.9-1.4-2.1-1.4-3.6v-37.9h-4.2
		c-1.4,0-2.5-0.4-3.3-1.2c-0.8-0.8-1.3-1.7-1.3-2.9c0-1.3,0.4-2.3,1.3-3.1c0.8-0.8,1.9-1.2,3.3-1.2h4.2v-1.7c0-4.6,0.9-8.6,2.8-12.1
		c1.8-3.5,4.4-6.2,7.8-8.1c3.3-1.9,7.1-2.9,11.4-2.9c1.4,0,2.6,0.4,3.5,1.3c0.9,0.8,1.4,1.9,1.4,3.2c0,1.3-0.5,2.4-1.4,3.2
		c-0.9,0.8-2.1,1.3-3.5,1.3C518,141.8,515.1,143,512.9,145.4z M581.8,156.8c0.9,0.9,1.4,2.1,1.4,3.6v43.3c0,1.4-0.5,2.6-1.4,3.5
		c-0.9,0.9-2.1,1.4-3.6,1.4c-1.4,0-2.6-0.5-3.5-1.4c-0.9-0.9-1.4-2.1-1.4-3.5v-1.1c-2.1,2.1-4.5,3.7-7.4,4.8
		c-2.9,1.1-5.9,1.7-9.1,1.7c-4.5,0-8.5-1-12-2.9c-3.6-1.9-6.3-4.8-8.4-8.5c-2-3.7-3-8.2-3-13.5v-23.9c0-1.4,0.5-2.6,1.4-3.5
		c0.9-0.9,2.1-1.4,3.5-1.4c1.4,0,2.6,0.5,3.5,1.4c0.9,0.9,1.4,2.1,1.4,3.5v23.9c0,5.2,1.4,9.2,4.2,11.9c2.8,2.7,6.6,4,11.2,4
		c2.7,0,5.2-0.5,7.4-1.7c2.2-1.1,4-2.6,5.2-4.5c1.3-1.9,1.9-4,1.9-6.3v-27.4c0-1.5,0.5-2.7,1.4-3.6c0.9-0.9,2.1-1.4,3.5-1.4
		C579.7,155.5,580.9,155.9,581.8,156.8z M600.1,134.2c0.9-0.9,2.1-1.4,3.5-1.4c1.4,0,2.6,0.5,3.5,1.4c0.9,0.9,1.4,2.1,1.4,3.5v53
		c0,2.4,0.5,4.4,1.4,5.9c0.9,1.6,2.1,2.3,3.5,2.3h2.4c1.3,0,2.3,0.5,3.2,1.4c0.8,0.9,1.2,2.1,1.2,3.5c0,1.4-0.6,2.6-1.8,3.5
		c-1.2,0.9-2.8,1.4-4.8,1.4h-0.2c-2.8,0-5.3-0.8-7.5-2.3c-2.2-1.5-4-3.7-5.2-6.4c-1.2-2.8-1.8-5.8-1.8-9.3v-53
		C598.7,136.3,599.1,135.1,600.1,134.2z M629.2,134.2c0.9-0.9,2.1-1.4,3.5-1.4c1.4,0,2.6,0.5,3.5,1.4c0.9,0.9,1.4,2.1,1.4,3.5v53
		c0,2.4,0.5,4.4,1.4,5.9c0.9,1.6,2.1,2.3,3.5,2.3h2.4c1.3,0,2.3,0.5,3.2,1.4c0.8,0.9,1.2,2.1,1.2,3.5c0,1.4-0.6,2.6-1.8,3.5
		c-1.2,0.9-2.8,1.4-4.8,1.4h-0.2c-2.8,0-5.3-0.8-7.5-2.3c-2.2-1.5-4-3.7-5.2-6.4c-1.2-2.8-1.8-5.8-1.8-9.3v-53
		C627.8,136.3,628.3,135.1,629.2,134.2z M693.7,158.7c4,2.4,7.3,5.6,9.6,9.7c2.4,4.1,3.5,8.7,3.5,13.7v21.7c0,1.4-0.5,2.6-1.4,3.5
		c-0.9,0.9-2.1,1.4-3.5,1.4c-1.4,0-2.6-0.5-3.5-1.4c-0.9-0.9-1.4-2.1-1.4-3.5v-3.6c-2.3,2.8-5,5-8.3,6.5c-3.2,1.6-6.7,2.3-10.5,2.3
		c-4.7,0-8.9-1.2-12.7-3.5c-3.8-2.3-6.8-5.6-8.9-9.7c-2.2-4.1-3.3-8.7-3.3-13.7c0-5.1,1.2-9.6,3.5-13.7c2.3-4.1,5.6-7.3,9.7-9.7
		c4.1-2.4,8.7-3.5,13.6-3.5C685.1,155.2,689.6,156.4,693.7,158.7z M688.9,198c2.6-1.6,4.7-3.8,6.2-6.5c1.5-2.8,2.2-5.8,2.2-9.3
		c0-3.4-0.7-6.5-2.2-9.3c-1.5-2.8-3.5-5-6.2-6.6c-2.6-1.6-5.6-2.4-8.8-2.4c-3.2,0-6.2,0.8-8.8,2.4c-2.6,1.6-4.7,3.8-6.2,6.6
		c-1.5,2.8-2.3,5.9-2.3,9.3c0,3.4,0.8,6.5,2.3,9.3c1.5,2.8,3.6,4.9,6.2,6.5c2.6,1.6,5.6,2.4,8.8,2.4
		C683.3,200.4,686.3,199.6,688.9,198z M729.1,198.8c1.3,1.3,2,2.9,2,4.8c0,1.8-0.6,3.4-1.9,4.7c-1.3,1.3-2.9,2-4.8,2
		c-1.8,0-3.4-0.7-4.7-2c-1.3-1.3-2-2.9-2-4.7c0-1.9,0.7-3.5,2-4.8c1.3-1.3,2.9-2,4.7-2C726.2,196.8,727.8,197.4,729.1,198.8z
		 M774.7,157.2c3.3,1.4,6,3.2,7.9,5.6c0.8,1,1.3,2.1,1.3,3.1c0,1.1-0.6,2.1-1.7,3c-0.7,0.5-1.6,0.8-2.7,0.8c-1.7,0-3.2-0.6-4.6-1.8
		c-1.6-1.5-3.3-2.5-5.1-3.2c-1.8-0.6-4-0.9-6.6-0.9c-3,0-5.4,0.5-7.3,1.5c-1.9,1-2.9,2.4-2.9,4.2c0,1.3,0.3,2.4,1,3.3
		c0.6,0.9,1.9,1.7,3.7,2.4c1.8,0.7,4.4,1.5,7.9,2.2c7.1,1.4,12.1,3.4,15,5.9c2.9,2.5,4.4,5.8,4.4,9.8c0,3-0.8,5.7-2.4,8.1
		c-1.6,2.4-4,4.3-7.1,5.7c-3.1,1.4-6.9,2.1-11.3,2.1c-4.4,0-8.5-0.7-12.4-2c-3.9-1.4-6.9-3.1-9.1-5.3c-0.8-0.8-1.3-1.8-1.3-3
		c0-1.6,0.6-2.8,1.9-3.8c1.2-0.9,2.4-1.4,3.4-1.4c1.3,0,2.5,0.6,3.7,1.7c1.2,1.4,3.1,2.5,5.5,3.5c2.5,1,5.1,1.5,7.9,1.5
		c3.7,0,6.6-0.6,8.6-1.8c2-1.2,3.1-2.9,3.1-5c0-2-1-3.7-3-5c-2-1.3-5.4-2.4-10.2-3.4c-12.4-2.4-18.7-7.5-18.7-15.4
		c0-3.2,0.9-5.9,2.8-8.1c1.9-2.2,4.3-3.9,7.4-5c3-1.1,6.3-1.7,9.7-1.7C767.6,155.2,771.3,155.9,774.7,157.2z M843.9,184.4
		c-0.8,0.8-1.9,1.2-3.2,1.2h-36.9c0.7,4.5,2.8,8.2,6.2,11c3.4,2.8,7.6,4.2,12.5,4.2c1.9,0,4-0.4,6.1-1.1c2.1-0.7,3.8-1.6,5.2-2.6
		c0.9-0.7,2-1.1,3.2-1.1c1.2,0,2.2,0.3,2.9,1c1.2,1,1.7,2.1,1.7,3.3c0,1.2-0.5,2.1-1.6,2.9c-2.2,1.7-4.9,3.2-8.2,4.3
		c-3.3,1.1-6.4,1.7-9.4,1.7c-5.3,0-10.1-1.1-14.3-3.4c-4.2-2.3-7.5-5.5-9.9-9.6c-2.4-4.1-3.5-8.7-3.5-13.9c0-5.2,1.1-9.8,3.4-13.9
		c2.2-4.1,5.3-7.3,9.3-9.6c4-2.3,8.5-3.4,13.6-3.4c5,0,9.3,1.1,12.9,3.3c3.6,2.2,6.4,5.3,8.4,9.2c1.9,4,2.9,8.5,2.9,13.6
		C845.2,182.6,844.7,183.6,843.9,184.4z M809.5,167.4c-2.9,2.6-4.8,6.1-5.6,10.4h32.4c-0.6-4.3-2.2-7.8-4.9-10.4
		c-2.7-2.6-6.1-3.9-10.4-3.9C816.2,163.5,812.4,164.8,809.5,167.4z"/>
	<path id="M_1_" class="st1" d="M128,214.2c1.4-14.5-21.3-41.8-31.1-51.6l-27.5-28.5c-7.9-7.9-11.8-18.7-10.8-29.8
		C59.7,93.6,65.2,84,74,78c8-5.5,17.8-7.5,27.7-5.6c7,1.4,13.4,5,18.5,10.1l0.1,0.1l10.9,10.9c0.1,0.1,0.2,0.1,0.3,0l10.9-10.9l0,0
		c5.6-5.6,12.8-9.4,20.6-10.5c11.6-1.6,22.8,2.2,30.9,10.2c6.8,6.8,10.6,15.9,10.6,25.6c0,9.2-3.4,17.9-9.7,24.7
		c-0.1,0.1,0,0.4,0.2,0.4h0c8.5,0,22.7-14.4,22.8-28.2c0-0.1,0-0.2,0-0.3c0-13.3-2.7-23.1-12.8-33.2c-10.1-10.1-23.4-15.2-36.7-15.2
		c-13.3,0-26.5,5.1-36.7,15.2l-0.3,0.3l-0.3-0.3C121,61.1,107.7,56.1,94.4,56.1c-10.2,0-20.5,3-29.3,9c-26.9,18.4-29.8,57-6.8,80.1
		l69.3,69.2C127.8,214.5,128,214.4,128,214.2L128,214.2z"/>
</g>
</svg>
